<?xml version="1.0" encoding="utf-8"?>
<svg viewBox="0 0 24 24" fill="none" xmlns="http://www.w3.org/2000/svg">
  <path d="M 8.163 19.059 C 8.163 19.161 8.062 19.233 7.918 19.233 C 7.773 19.233 7.657 19.233 7.657 19.059 C 7.657 18.885 7.773 18.885 7.903 18.885 C 8.033 18.885 8.163 18.958 8.163 19.059 Z M 6.716 18.842 C 6.716 18.943 6.716 19.059 6.918 19.088 C 6.97 19.113 7.03 19.116 7.084 19.098 C 7.138 19.079 7.182 19.039 7.207 18.987 C 7.207 18.885 7.207 18.784 7.004 18.74 C 6.803 18.697 6.745 18.74 6.716 18.842 Z M 8.772 18.769 C 8.641 18.769 8.554 18.885 8.569 19.001 C 8.583 19.117 8.699 19.161 8.844 19.132 C 8.989 19.103 9.062 19.001 9.047 18.9 C 9.033 18.798 8.917 18.755 8.772 18.769 Z M 11.856 0.406 C 10.329 0.392 8.814 0.687 7.404 1.272 C 5.993 1.857 4.715 2.721 3.647 3.813 C 2.578 4.904 1.741 6.201 1.186 7.623 C 0.63 9.046 0.368 10.567 0.416 12.094 C 0.375 14.594 1.116 17.046 2.537 19.105 C 3.957 21.164 5.985 22.727 8.337 23.578 C 8.931 23.679 9.149 23.303 9.149 22.998 C 9.149 22.694 9.149 21.058 9.149 20.102 C 9.149 20.102 5.875 20.826 5.18 18.653 C 5.18 18.653 4.658 17.206 3.891 16.902 C 3.891 16.902 2.82 16.148 3.964 16.162 C 4.339 16.214 4.696 16.351 5.008 16.565 C 5.319 16.779 5.577 17.063 5.759 17.393 C 5.911 17.691 6.121 17.954 6.378 18.166 C 6.635 18.379 6.933 18.537 7.253 18.631 C 7.573 18.724 7.909 18.752 8.239 18.71 C 8.571 18.67 8.89 18.562 9.177 18.393 C 9.232 17.789 9.492 17.221 9.916 16.786 C 7.309 16.481 4.673 16.105 4.673 11.485 C 4.646 10.963 4.729 10.441 4.919 9.955 C 5.109 9.468 5.401 9.027 5.773 8.661 C 5.422 7.601 5.462 6.449 5.889 5.417 C 6.874 5.098 9.12 6.706 9.12 6.706 C 11.036 6.165 13.067 6.165 14.984 6.706 C 14.984 6.706 17.229 5.098 18.214 5.417 C 18.65 6.447 18.692 7.603 18.33 8.661 C 18.717 9.021 19.023 9.459 19.23 9.946 C 19.438 10.432 19.54 10.956 19.532 11.485 C 19.532 16.119 16.781 16.481 14.174 16.786 C 14.436 17.079 14.635 17.423 14.759 17.797 C 14.884 18.17 14.931 18.565 14.898 18.958 C 14.898 20.58 14.898 22.578 14.898 22.969 C 14.897 23.067 14.92 23.164 14.963 23.251 C 15.008 23.339 15.072 23.414 15.153 23.47 C 15.232 23.527 15.324 23.564 15.421 23.577 C 15.518 23.592 15.616 23.581 15.708 23.549 C 18.057 22.706 20.08 21.146 21.494 19.091 C 22.907 17.035 23.64 14.588 23.587 12.094 C 23.6 10.552 23.307 9.022 22.721 7.595 C 22.135 6.168 21.272 4.872 20.179 3.783 C 19.086 2.695 17.787 1.835 16.358 1.256 C 14.929 0.676 13.399 0.387 11.856 0.406 Z M 4.963 16.931 C 4.963 16.931 4.963 17.09 4.963 17.177 C 4.979 17.192 4.999 17.206 5.019 17.215 C 5.04 17.223 5.063 17.228 5.086 17.228 C 5.109 17.228 5.131 17.223 5.152 17.215 C 5.173 17.206 5.193 17.192 5.209 17.177 C 5.209 17.177 5.209 17.018 5.209 16.916 C 5.209 16.815 5.021 16.873 4.963 16.931 Z M 4.456 16.539 C 4.456 16.539 4.456 16.684 4.557 16.728 C 4.57 16.743 4.585 16.755 4.602 16.763 C 4.62 16.772 4.639 16.776 4.658 16.776 C 4.678 16.776 4.697 16.772 4.715 16.763 C 4.733 16.755 4.747 16.743 4.76 16.728 C 4.76 16.728 4.76 16.583 4.658 16.539 C 4.557 16.496 4.485 16.496 4.456 16.539 Z M 5.904 18.249 C 5.904 18.249 5.904 18.451 5.904 18.553 C 5.904 18.653 6.15 18.668 6.208 18.553 C 6.266 18.437 6.208 18.35 6.208 18.249 C 6.208 18.147 6.02 18.176 5.962 18.249 L 5.904 18.249 Z M 5.369 17.538 C 5.369 17.538 5.369 17.712 5.369 17.828 C 5.369 17.944 5.572 17.988 5.643 17.944 C 5.68 17.902 5.7 17.848 5.7 17.792 C 5.7 17.736 5.68 17.682 5.643 17.64 C 5.572 17.524 5.456 17.48 5.369 17.538 Z" style="fill: rgb(255, 255, 255);"/>
</svg>