<?xml version="1.0" encoding="utf-8"?>
<svg viewBox="0 0 24 24" fill="none" xmlns="http://www.w3.org/2000/svg">
  <path d="M 23.298 6.321 C 23.167 5.816 22.905 5.355 22.537 4.985 C 22.17 4.616 21.71 4.349 21.207 4.215 C 18.152 3.854 15.076 3.692 12.001 3.729 C 8.925 3.692 5.849 3.854 2.794 4.215 C 2.291 4.349 1.831 4.616 1.464 4.985 C 1.096 5.355 0.834 5.816 0.703 6.321 C 0.368 8.198 0.205 10.101 0.217 12.008 C 0.205 13.923 0.367 15.835 0.703 17.722 C 0.842 18.219 1.107 18.671 1.473 19.033 C 1.84 19.394 2.297 19.654 2.794 19.784 C 5.849 20.146 8.925 20.308 12.001 20.27 C 15.076 20.308 18.152 20.146 21.207 19.784 C 21.704 19.654 22.161 19.394 22.528 19.033 C 22.894 18.671 23.159 18.219 23.298 17.722 C 23.634 15.835 23.796 13.923 23.784 12.008 C 23.796 10.101 23.633 8.198 23.298 6.321 Z M 9.585 15.527 L 9.585 8.516 L 15.757 12.008 L 9.585 15.512 L 9.585 15.527 Z" style="fill: rgb(255, 255, 255);" transform="matrix(0.9999999999999999, 0, 0, 0.9999999999999999, 0, 8.881784197001252e-16)"/>
</svg>