<?xml version="1.0" encoding="UTF-8" standalone="no"?>
<svg
   viewBox="0 0 283.46 283.46"
   width="283.46px"
   height="283.46px"
   version="1.1"
   id="svg3"
   sodipodi:docname="logo2.svg"
   inkscape:export-filename="icons\icon-512x512.png"
   inkscape:export-xdpi="173.40013"
   inkscape:export-ydpi="173.40013"
   inkscape:version="1.3.2 (091e20e, 2023-11-25, custom)"
   xmlns:inkscape="http://www.inkscape.org/namespaces/inkscape"
   xmlns:sodipodi="http://sodipodi.sourceforge.net/DTD/sodipodi-0.dtd"
   xmlns="http://www.w3.org/2000/svg"
   xmlns:svg="http://www.w3.org/2000/svg">
  <sodipodi:namedview
     id="namedview3"
     pagecolor="#ffffff"
     bordercolor="#000000"
     borderopacity="0.25"
     inkscape:showpageshadow="2"
     inkscape:pageopacity="0.0"
     inkscape:pagecheckerboard="0"
     inkscape:deskcolor="#d1d1d1"
     inkscape:zoom="2.0006338"
     inkscape:cx="142.45486"
     inkscape:cy="141.45517"
     inkscape:window-width="1920"
     inkscape:window-height="991"
     inkscape:window-x="-9"
     inkscape:window-y="-9"
     inkscape:window-maximized="1"
     inkscape:current-layer="svg3" />
  <defs
     id="defs1" />
  <g
     id="g4"
     transform="matrix(0.91251084,0,0,0.91251084,27.000008,27.000008)">
    <path
       d="M 125.73,4.6395808 C 58.849944,4.6395808 4.6395808,58.85792 4.6395808,125.73 c 0,66.87202 54.2103632,121.0904 121.0904192,121.0904 66.87996,0 121.0904,-54.21838 121.0904,-121.0904 C 246.8204,58.85792 192.60996,4.6395808 125.73,4.6395808"
       style="fill:#ffffff;stroke-width:0.887104;paint-order:fill"
       id="path1" />
    <path
       d="M 125.73,0 C 56.287088,0 0,56.295968 0,125.73 c 0,69.43416 56.287088,125.73 125.73,125.73 69.44288,0 125.73,-56.29584 125.73,-125.73 C 251.46,56.295968 195.17288,0 125.73,0 m 0,235.11936 c -60.412133,0 -109.389456,-48.97735 -109.389456,-109.38936 0,-60.412133 48.977323,-109.380576 109.389456,-109.380576 60.41201,0 109.38064,48.968443 109.38064,109.380576 0,60.41201 -48.96863,109.38936 -109.38064,109.38936 m 62.55,-53.12896 c 0,5.97928 -0.01,0.01 -0.01,0.01"
       style="fill:#1f3c90;stroke-width:0.887104"
       id="path2" />
    <g
       transform="matrix(1.0380002,0,0,1.0380002,-12.792729,-18.322375)"
       id="g3">
      <path
         d="m 148,186.498 c 0,4.732 -3.735,7.463 -8.207,7.463 -3.987,0 -8.459,-2.731 -8.459,-7.463 v -64.671 h -0.246 l -24.627,50.245 c -1.741,3.482 -3.973,5.468 -7.961,5.468 -3.988,0 -6.22,-1.993 -7.961,-5.468 L 65.912,121.827 h -0.246 v 64.678 c 0,4.732 -4.479,7.463 -8.459,7.463 -4.479,0 -8.207,-2.731 -8.207,-7.463 V 99.692 c 0,-4.977 2.738,-10.2 10.945,-10.2 6.22,0 8.705,2.738 11.443,8.207 L 98.5,153.664 h 0.246 l 26.866,-55.965 c 2.731,-5.469 5.223,-8.207 11.436,-8.207 8.207,0 10.945,5.223 10.945,10.2 v 86.813"
         style="fill:#1f3c90"
         id="path3" />
      <path
         d="m 130.193,214.08 c -2.235,0 -4.376,-0.888 -5.949,-2.465 -0.887,-0.844 -1.571,-1.873 -1.999,-3.018 -0.437,-1.145 -0.591,-2.388 -0.471,-3.61 l 1.797,-21.546 c 0.137,-1.973 0.963,-3.846 2.36,-5.264 l 61.946,-61.946 c 4.267,-3.954 9.876,-6.151 15.71,-6.151 5.821,0 11.429,2.197 15.708,6.151 2.097,2.124 3.756,4.656 4.879,7.432 1.124,2.767 1.677,5.741 1.622,8.72 0.043,2.766 -0.455,5.498 -1.479,8.074 -1.018,2.563 -2.541,4.891 -4.464,6.85 l -61.946,61.947 c -1.381,1.418 -3.21,2.289 -5.16,2.471 l -21.771,2.025 z m 9.875,-26.258 -0.673,8.528 8.752,-0.783 59.815,-59.815 c 0.696,-0.839 1.058,-1.917 1.014,-3.03 -0.022,-1.561 -0.57,-3.066 -1.583,-4.261 -1.101,-0.822 -2.437,-1.254 -3.806,-1.254 -1.381,0 -2.718,0.432 -3.824,1.254 z"
         style="fill:#ffffff;stroke:#ffffff;stroke-width:0px"
         id="path-1" />
      <path
         d="m 135.43,219.229 c -2.235,0 -4.376,-0.888 -5.949,-2.465 -0.887,-0.844 -1.571,-1.873 -1.999,-3.018 -0.437,-1.145 -0.591,-2.388 -0.471,-3.61 l 1.797,-21.546 c 0.137,-1.973 0.963,-3.846 2.36,-5.264 l 61.946,-61.946 c 4.267,-3.954 9.876,-6.151 15.71,-6.151 5.821,0 11.429,2.197 15.708,6.151 2.097,2.124 3.756,4.656 4.879,7.432 1.124,2.767 1.677,5.741 1.622,8.72 0.043,2.766 -0.455,5.498 -1.479,8.074 -1.018,2.563 -2.541,4.891 -4.464,6.85 l -61.946,61.947 c -1.381,1.418 -3.21,2.289 -5.16,2.471 l -21.771,2.025 z m 9.875,-26.258 -0.673,8.528 8.752,-0.783 59.815,-59.815 c 0.696,-0.839 1.058,-1.917 1.014,-3.03 -0.022,-1.561 -0.57,-3.066 -1.583,-4.261 -1.101,-0.822 -2.437,-1.254 -3.806,-1.254 -1.381,0 -2.718,0.432 -3.824,1.254 z"
         style="fill:#1f3c90;stroke:#ffffff;stroke-width:0px"
         id="object-0" />
    </g>
  </g>
</svg>
