<?xml version="1.0" encoding="utf-8"?>
<svg viewBox="0 0 283.46 283.46" xmlns="http://www.w3.org/2000/svg" xmlns:bx="https://boxy-svg.com" width="283.46px" height="283.46px"><defs/><path d="M 141.73 5.23 C 66.339 5.23 5.23 66.348 5.23 141.73 C 5.23 217.112 66.339 278.23 141.73 278.23 C 217.121 278.23 278.23 217.112 278.23 141.73 C 278.23 66.348 217.121 5.23 141.73 5.23" style="paint-order: fill; fill: rgb(255, 255, 255);"/><path d="M 141.73 0 C 63.45 0 0 63.46 0 141.73 C 0 220 63.45 283.46 141.73 283.46 C 220.01 283.46 283.46 220 283.46 141.73 C 283.46 63.46 220.01 0 141.73 0 M 141.73 265.04 C 73.63 265.04 18.42 209.83 18.42 141.73 C 18.42 73.63 73.63 18.43 141.73 18.43 C 209.83 18.43 265.03 73.63 265.03 141.73 C 265.03 209.83 209.83 265.04 141.73 265.04 M 212.24 205.15 C 212.24 211.89 212.23 205.16 212.23 205.16" style="fill: rgb(31, 60, 144);"/><g transform="matrix(1.170093, 0, 0, 1.170093, -14.420697, -20.654023)" style=""><path d="M 148 186.498 C 148 191.23 144.265 193.961 139.793 193.961 C 135.806 193.961 131.334 191.23 131.334 186.498 L 131.334 121.827 L 131.088 121.827 L 106.461 172.072 C 104.72 175.554 102.488 177.54 98.5 177.54 C 94.512 177.54 92.28 175.547 90.539 172.072 L 65.912 121.827 L 65.666 121.827 L 65.666 186.505 C 65.666 191.237 61.187 193.968 57.207 193.968 C 52.728 193.968 49 191.237 49 186.505 L 49 99.692 C 49 94.715 51.738 89.492 59.945 89.492 C 66.165 89.492 68.65 92.23 71.388 97.699 L 98.5 153.664 L 98.746 153.664 L 125.612 97.699 C 128.343 92.23 130.835 89.492 137.048 89.492 C 145.255 89.492 147.993 94.715 147.993 99.692 L 147.993 186.505" style="fill: rgb(31, 60, 144);"/><path d="M 130.193 214.08 C 127.958 214.08 125.817 213.192 124.244 211.615 C 123.357 210.771 122.673 209.742 122.245 208.597 C 121.808 207.452 121.654 206.209 121.774 204.987 L 123.571 183.441 C 123.708 181.468 124.534 179.595 125.931 178.177 L 187.877 116.231 C 192.144 112.277 197.753 110.08 203.587 110.08 C 209.408 110.08 215.016 112.277 219.295 116.231 C 221.392 118.355 223.051 120.887 224.174 123.663 C 225.298 126.43 225.851 129.404 225.796 132.383 C 225.839 135.149 225.341 137.881 224.317 140.457 C 223.299 143.02 221.776 145.348 219.853 147.307 L 157.907 209.254 C 156.526 210.672 154.697 211.543 152.747 211.725 L 130.976 213.75 L 130.193 214.08 Z M 140.068 187.822 L 139.395 196.35 L 148.147 195.567 L 207.962 135.752 C 208.658 134.913 209.02 133.835 208.976 132.722 C 208.954 131.161 208.406 129.656 207.393 128.461 C 206.292 127.639 204.956 127.207 203.587 127.207 C 202.206 127.207 200.869 127.639 199.763 128.461 L 140.068 187.822 Z" style="stroke: rgb(255, 255, 255); stroke-width: 0px; fill: rgb(255, 255, 255);" id="path-1"/><path d="M 135.43 219.229 C 133.195 219.229 131.054 218.341 129.481 216.764 C 128.594 215.92 127.91 214.891 127.482 213.746 C 127.045 212.601 126.891 211.358 127.011 210.136 L 128.808 188.59 C 128.945 186.617 129.771 184.744 131.168 183.326 L 193.114 121.38 C 197.381 117.426 202.99 115.229 208.824 115.229 C 214.645 115.229 220.253 117.426 224.532 121.38 C 226.629 123.504 228.288 126.036 229.411 128.812 C 230.535 131.579 231.088 134.553 231.033 137.532 C 231.076 140.298 230.578 143.03 229.554 145.606 C 228.536 148.169 227.013 150.497 225.09 152.456 L 163.144 214.403 C 161.763 215.821 159.934 216.692 157.984 216.874 L 136.213 218.899 L 135.43 219.229 Z M 145.305 192.971 L 144.632 201.499 L 153.384 200.716 L 213.199 140.901 C 213.895 140.062 214.257 138.984 214.213 137.871 C 214.191 136.31 213.643 134.805 212.63 133.61 C 211.529 132.788 210.193 132.356 208.824 132.356 C 207.443 132.356 206.106 132.788 205 133.61 L 145.305 192.971 Z" style="fill: rgb(31, 60, 144); stroke: rgb(255, 255, 255); stroke-width: 0px;" id="object-0"/></g></svg>